<svg xmlns="http://www.w3.org/2000/svg" viewBox="0 0 64 64" width="64" height="64">
  <defs>
    <linearGradient id="g" x1="0" y1="0" x2="1" y2="1">
      <stop offset="0" stop-color="#1B3A6B"/>
      <stop offset="1" stop-color="#081733"/>
    </linearGradient>
    <clipPath id="c"><circle cx="32" cy="32" r="28"/></clipPath>
  </defs>
  <g clip-path="url(#c)">
    <rect x="0" y="0" width="64" height="64" fill="url(#g)"/>
    <path d="M-2 40 Q 32 30 66 40 L66 66 L-2 66 Z" fill="#1E9AD6" opacity="0.9"/>
    <path d="M-2 45 Q 32 36 66 45 L66 66 L-2 66 Z" fill="#35B0E8" opacity="0.55"/>
    <g fill="none" stroke="#FFFFFF" stroke-width="0.9" opacity="0.28">
      <ellipse cx="32" cy="32" rx="12" ry="28"/>
      <ellipse cx="32" cy="32" rx="24" ry="28"/>
      <line x1="4" y1="32" x2="60" y2="32"/>
      <line x1="32" y1="4" x2="32" y2="60"/>
    </g>
    <path d="M12 44 Q 32 10 52 24" fill="none" stroke="#F2B53D" stroke-width="2.6" stroke-linecap="round"/>
    <circle cx="12" cy="44" r="3.2" fill="#F2B53D"/>
    <circle cx="52" cy="24" r="3.2" fill="#E9A413"/>
  </g>
  <circle cx="32" cy="32" r="28" fill="none" stroke="#E9A413" stroke-width="2.2"/>
</svg>
